ffmpeg started on 2025-06-23 at 21:00:11
Report written to "D:\Convert\FFMetrics\reports\ssim_report-6.txt"
Log level: 32
Command line:
ffmpeg -hide_banner -nostdin -i "G:\\\xc0\xed\xe8\xec\xe5\\[\xd2\xee\xef-4]\\\xcc\xee\xe6\xe5\xf2, \xff \xe2\xf1\xf2\xf0\xe5\xf7\xf3 \xf2\xe5\xe1\xff \xe2 \xef\xee\xe4\xe7\xe5\xec\xe5\xeb\xfc\xe5\\\xd2\xc2-2\\Danmachi_Sword_Oratoria_[01]_[AniLibria_TV]_[HDTV-Rip]_HEVC.mkv" -i "G:\\\xc0\xed\xe8\xec\xe5\\[\xd2\xee\xef-4]\\\xcc\xee\xe6\xe5\xf2, \xff \xe2\xf1\xf2\xf0\xe5\xf7\xf3 \xf2\xe5\xe1\xff \xe2 \xef\xee\xe4\xe7\xe5\xec\xe5\xeb\xfc\xe5\\\xd2\xc2-2\\Danmachi_Sword_Oratoria_[01]_[AniLibria_TV]_[HDTV-Rip].mkv" -lavfi "[0:v]settb=AVTB,setpts=PTS-STARTPTS,format=pix_fmts=yuv420p10,fps=24000/1001,scale=1280:720:flags=bicubic[main];[1:v]settb=AVTB,setpts=PTS-STARTPTS,format=pix_fmts=yuv420p,fps=24000/1001,scale=1280:720:flags=bicubic[ref];[main][ref]ssim=eof_action=endall:stats_file='D\\:/Convert/FFMetrics/logs/ssim_logfile-6.txt'" -f null -
Input #0, matroska,webm, from 'G:\Аниме\[Топ-4]\Может, я встречу тебя в подземелье\ТВ-2\Danmachi_Sword_Oratoria_[01]_[AniLibria_TV]_[HDTV-Rip]_HEVC.mkv':
  Metadata:
    ENCODER         : Lavf61.7.100
  Duration: 00:23:59.81, start: -0.021000, bitrate: 885 kb/s
  Stream #0:0(jpn): Video: hevc (Main 10), yuv420p10le(tv, bt709, progressive), 1280x720 [SAR 1:1 DAR 16:9], 23.98 fps, 23.98 tbr, 1k tbn (default) (forced)
      Metadata:
        title           : Original
        ENCODER         : Lavc61.19.100 libx265
        BPS             : 686642
        DURATION        : 00:23:59.771708333
        NUMBER_OF_FRAMES: 34520
        NUMBER_OF_BYTES : 123575919
        _STATISTICS_WRITING_APP: mkvpropedit v66.0.0 ('Josie') 64-bit
        _STATISTICS_WRITING_DATE_UTC: 2025-06-23 09:58:13
        _STATISTICS_TAGS: BPS DURATION NUMBER_OF_FRAMES NUMBER_OF_BYTES
  Stream #0:1(rus): Audio: aac (LC), 48000 Hz, stereo, fltp (default) (forced)
      Metadata:
        title           : Sharon & Leeannushka
        ENCODER         : Lavc61.19.100 aac
        BPS             : 194735
        DURATION        : 00:23:59.786000000
        NUMBER_OF_FRAMES: 67491
        NUMBER_OF_BYTES : 35047154
        _STATISTICS_WRITING_APP: mkvpropedit v66.0.0 ('Josie') 64-bit
        _STATISTICS_WRITING_DATE_UTC: 2025-06-23 09:58:13
        _STATISTICS_TAGS: BPS DURATION NUMBER_OF_FRAMES NUMBER_OF_BYTES
  Stream #0:2(rus): Subtitle: ass (ssa) (default) (forced)
      Metadata:
        title           : Надписи
        BPS             : 23
        DURATION        : 00:21:50.740000000
        NUMBER_OF_FRAMES: 39
        NUMBER_OF_BYTES : 3804
        _STATISTICS_WRITING_APP: mkvpropedit v66.0.0 ('Josie') 64-bit
        _STATISTICS_WRITING_DATE_UTC: 2025-06-23 09:58:13
        _STATISTICS_TAGS: BPS DURATION NUMBER_OF_FRAMES NUMBER_OF_BYTES
  Stream #0:3(rus): Subtitle: ass (ssa)
      Metadata:
        title           : Субтитры
        BPS             : 135
        DURATION        : 00:23:36.720000000
        NUMBER_OF_FRAMES: 306
        NUMBER_OF_BYTES : 23919
        _STATISTICS_WRITING_APP: mkvpropedit v66.0.0 ('Josie') 64-bit
        _STATISTICS_WRITING_DATE_UTC: 2025-06-23 09:58:13
        _STATISTICS_TAGS: BPS DURATION NUMBER_OF_FRAMES NUMBER_OF_BYTES
Input #1, matroska,webm, from 'G:\Аниме\[Топ-4]\Может, я встречу тебя в подземелье\ТВ-2\Danmachi_Sword_Oratoria_[01]_[AniLibria_TV]_[HDTV-Rip].mkv':
  Metadata:
    encoder         : libebml v1.4.2 + libmatroska v1.6.4
    creation_time   : 2025-01-14T16:50:45.000000Z
  Duration: 00:23:59.79, start: 0.000000, bitrate: 3164 kb/s
  Stream #1:0(jpn): Video: h264 (High), yuv420p(tv, bt709, progressive), 1280x720 [SAR 1:1 DAR 16:9], 23.98 fps, 23.98 tbr, 1k tbn (default) (forced)
      Metadata:
        title           : Original
        BPS             : 2967211
        DURATION        : 00:23:59.772000000
        NUMBER_OF_FRAMES: 34520
        NUMBER_OF_BYTES : 534013580
        _STATISTICS_WRITING_APP: mkvmerge v66.0.0 ('Josie') 64-bit
        _STATISTICS_WRITING_DATE_UTC: 2025-01-14 16:50:45
        _STATISTICS_TAGS: BPS DURATION NUMBER_OF_FRAMES NUMBER_OF_BYTES
  Stream #1:1(rus): Audio: aac (LC), 48000 Hz, stereo, fltp (default) (forced)
      Metadata:
        title           : Sharon & Leeannushka
        BPS             : 192090
        DURATION        : 00:23:59.786000000
        NUMBER_OF_FRAMES: 67490
        NUMBER_OF_BYTES : 34571168
        _STATISTICS_WRITING_APP: mkvmerge v66.0.0 ('Josie') 64-bit
        _STATISTICS_WRITING_DATE_UTC: 2025-01-14 16:50:45
        _STATISTICS_TAGS: BPS DURATION NUMBER_OF_FRAMES NUMBER_OF_BYTES
  Stream #1:2(rus): Subtitle: ass (ssa) (default) (forced)
      Metadata:
        title           : Надписи
        BPS             : 23
        DURATION        : 00:21:50.740000000
        NUMBER_OF_FRAMES: 39
        NUMBER_OF_BYTES : 3804
        _STATISTICS_WRITING_APP: mkvmerge v66.0.0 ('Josie') 64-bit
        _STATISTICS_WRITING_DATE_UTC: 2025-01-14 16:50:45
        _STATISTICS_TAGS: BPS DURATION NUMBER_OF_FRAMES NUMBER_OF_BYTES
  Stream #1:3(rus): Subtitle: ass (ssa)
      Metadata:
        title           : Субтитры
        BPS             : 135
        DURATION        : 00:23:36.720000000
        NUMBER_OF_FRAMES: 306
        NUMBER_OF_BYTES : 23919
        _STATISTICS_WRITING_APP: mkvmerge v66.0.0 ('Josie') 64-bit
        _STATISTICS_WRITING_DATE_UTC: 2025-01-14 16:50:45
        _STATISTICS_TAGS: BPS DURATION NUMBER_OF_FRAMES NUMBER_OF_BYTES
  Stream #1:4: Attachment: ttf
      Metadata:
        filename        : 9808.ttf
        mimetype        : application/x-truetype-font
  Stream #1:5: Attachment: ttf
      Metadata:
        filename        : 10119.ttf
        mimetype        : application/x-truetype-font
  Stream #1:6: Attachment: ttf
      Metadata:
        filename        : 10323.ttf
        mimetype        : application/x-truetype-font
Stream mapping:
  Stream #0:0 (hevc) -> settb:default
  Stream #1:0 (h264) -> settb:default
  ssim:default -> Stream #0:0 (wrapped_avframe)
  Stream #0:1 -> #0:1 (aac (native) -> pcm_s16le (native))
Output #0, null, to 'pipe:':
  Metadata:
    encoder         : Lavf61.7.100
  Stream #0:0: Video: wrapped_avframe, yuv420p10le(tv, bt709, progressive), 1280x720 [SAR 1:1 DAR 16:9], q=2-31, 200 kb/s, 23.98 fps, 23.98 tbn
      Metadata:
        encoder         : Lavc61.19.100 wrapped_avframe
  Stream #0:1(rus): Audio: pcm_s16le, 48000 Hz, stereo, s16, 1536 kb/s (default) (forced)
      Metadata:
        title           : Sharon & Leeannushka
        _STATISTICS_TAGS: BPS DURATION NUMBER_OF_FRAMES NUMBER_OF_BYTES
        BPS             : 194735
        DURATION        : 00:23:59.786000000
        NUMBER_OF_FRAMES: 67491
        NUMBER_OF_BYTES : 35047154
        _STATISTICS_WRITING_APP: mkvpropedit v66.0.0 ('Josie') 64-bit
        _STATISTICS_WRITING_DATE_UTC: 2025-06-23 09:58:13
        encoder         : Lavc61.19.100 pcm_s16le
frame=  419 fps=0.0 q=-0.0 size=N/A time=00:00:17.47 bitrate=N/A speed=33.4x    frame=  851 fps=825 q=-0.0 size=N/A time=00:00:35.49 bitrate=N/A speed=34.4x    frame= 1274 fps=818 q=-0.0 size=N/A time=00:00:53.13 bitrate=N/A speed=34.1x    frame= 1689 fps=811 q=-0.0 size=N/A time=00:01:10.44 bitrate=N/A speed=33.8x    frame= 2133 fps=823 q=-0.0 size=N/A time=00:01:28.96 bitrate=N/A speed=34.3x    frame= 2486 fps=799 q=-0.0 size=N/A time=00:01:43.68 bitrate=N/A speed=33.3x    frame= 2994 fps=827 q=-0.0 size=N/A time=00:02:04.87 bitrate=N/A speed=34.5x    frame= 3602 fps=868 q=-0.0 size=N/A time=00:02:30.23 bitrate=N/A speed=36.2x    frame= 4119 fps=884 q=-0.0 size=N/A time=00:02:51.79 bitrate=N/A speed=36.9x    frame= 4708 fps=911 q=-0.0 size=N/A time=00:03:16.36 bitrate=N/A speed=  38x    frame= 5267 fps=925 q=-0.0 size=N/A time=00:03:39.67 bitrate=N/A speed=38.6x    frame= 5837 fps=941 q=-0.0 size=N/A time=00:04:03.45 bitrate=N/A speed=39.2x    frame= 6377 fps=948 q=-0.0 size=N/A time=00:04:25.97 bitrate=N/A speed=39.5x    frame= 6922 fps=956 q=-0.0 size=N/A time=00:04:48.70 bitrate=N/A speed=39.9x    frame= 7449 fps=961 q=-0.0 size=N/A time=00:05:10.68 bitrate=N/A speed=40.1x    frame= 7871 fps=952 q=-0.0 size=N/A time=00:05:28.28 bitrate=N/A speed=39.7x    frame= 8255 fps=941 q=-0.0 size=N/A time=00:05:44.30 bitrate=N/A speed=39.2x    frame= 8793 fps=945 q=-0.0 size=N/A time=00:06:06.74 bitrate=N/A speed=39.4x    frame= 9299 fps=947 q=-0.0 size=N/A time=00:06:27.84 bitrate=N/A speed=39.5x    frame= 9840 fps=952 q=-0.0 size=N/A time=00:06:50.41 bitrate=N/A speed=39.7x    frame=10400 fps=958 q=-0.0 size=N/A time=00:07:13.76 bitrate=N/A speed=  40x    frame=11026 fps=970 q=-0.0 size=N/A time=00:07:39.87 bitrate=N/A speed=40.5x    frame=11601 fps=977 q=-0.0 size=N/A time=00:08:03.85 bitrate=N/A speed=40.8x    frame=12198 fps=984 q=-0.0 size=N/A time=00:08:28.75 bitrate=N/A speed=  41x    frame=12706 fps=985 q=-0.0 size=N/A time=00:08:49.94 bitrate=N/A speed=41.1x    frame=13075 fps=974 q=-0.0 size=N/A time=00:09:05.33 bitrate=N/A speed=40.6x    frame=13396 fps=961 q=-0.0 size=N/A time=00:09:18.72 bitrate=N/A speed=40.1x    frame=13813 fps=955 q=-0.0 size=N/A time=00:09:36.11 bitrate=N/A speed=39.9x    frame=14246 fps=952 q=-0.0 size=N/A time=00:09:54.17 bitrate=N/A speed=39.7x    frame=14761 fps=953 q=-0.0 size=N/A time=00:10:15.65 bitrate=N/A speed=39.8x    frame=15049 fps=941 q=-0.0 size=N/A time=00:10:27.66 bitrate=N/A speed=39.2x    frame=15485 fps=937 q=-0.0 size=N/A time=00:10:45.85 bitrate=N/A speed=39.1x    frame=16035 fps=942 q=-0.0 size=N/A time=00:11:08.79 bitrate=N/A speed=39.3x    frame=16517 fps=941 q=-0.0 size=N/A time=00:11:28.89 bitrate=N/A speed=39.2x    frame=16928 fps=937 q=-0.0 size=N/A time=00:11:46.03 bitrate=N/A speed=39.1x    frame=17397 fps=937 q=-0.0 size=N/A time=00:12:05.59 bitrate=N/A speed=39.1x    frame=17889 fps=937 q=-0.0 size=N/A time=00:12:26.12 bitrate=N/A speed=39.1x    frame=18325 fps=934 q=-0.0 size=N/A time=00:12:44.30 bitrate=N/A speed=  39x    frame=18781 fps=933 q=-0.0 size=N/A time=00:13:03.32 bitrate=N/A speed=38.9x    frame=19328 fps=936 q=-0.0 size=N/A time=00:13:26.13 bitrate=N/A speed=  39x    frame=19712 fps=932 q=-0.0 size=N/A time=00:13:42.15 bitrate=N/A speed=38.9x    frame=20107 fps=928 q=-0.0 size=N/A time=00:13:58.62 bitrate=N/A speed=38.7x    frame=20552 fps=926 q=-0.0 size=N/A time=00:14:17.18 bitrate=N/A speed=38.6x    frame=20943 fps=922 q=-0.0 size=N/A time=00:14:33.49 bitrate=N/A speed=38.5x    frame=21406 fps=922 q=-0.0 size=N/A time=00:14:52.80 bitrate=N/A speed=38.5x    frame=21859 fps=921 q=-0.0 size=N/A time=00:15:11.70 bitrate=N/A speed=38.4x    frame=22453 fps=926 q=-0.0 size=N/A time=00:15:36.47 bitrate=N/A speed=38.6x    frame=22956 fps=927 q=-0.0 size=N/A time=00:15:57.45 bitrate=N/A speed=38.6x    frame=23364 fps=923 q=-0.0 size=N/A time=00:16:14.47 bitrate=N/A speed=38.5x    frame=23768 fps=921 q=-0.0 size=N/A time=00:16:31.32 bitrate=N/A speed=38.4x    frame=24141 fps=917 q=-0.0 size=N/A time=00:16:46.88 bitrate=N/A speed=38.3x    frame=24669 fps=919 q=-0.0 size=N/A time=00:17:08.90 bitrate=N/A speed=38.3x    frame=25214 fps=922 q=-0.0 size=N/A time=00:17:31.63 bitrate=N/A speed=38.4x    frame=25824 fps=926 q=-0.0 size=N/A time=00:17:57.07 bitrate=N/A speed=38.6x    frame=26313 fps=927 q=-0.0 size=N/A time=00:18:17.47 bitrate=N/A speed=38.7x    frame=26851 fps=929 q=-0.0 size=N/A time=00:18:39.91 bitrate=N/A speed=38.7x    frame=27445 fps=932 q=-0.0 size=N/A time=00:19:04.68 bitrate=N/A speed=38.9x    frame=27969 fps=934 q=-0.0 size=N/A time=00:19:26.54 bitrate=N/A speed=38.9x    frame=28512 fps=936 q=-0.0 size=N/A time=00:19:49.18 bitrate=N/A speed=  39x    frame=28986 fps=936 q=-0.0 size=N/A time=00:20:08.95 bitrate=N/A speed=  39x    frame=29515 fps=937 q=-0.0 size=N/A time=00:20:31.02 bitrate=N/A speed=39.1x    frame=29919 fps=934 q=-0.0 size=N/A time=00:20:47.87 bitrate=N/A speed=  39x    frame=30433 fps=935 q=-0.0 size=N/A time=00:21:09.30 bitrate=N/A speed=  39x    frame=31014 fps=938 q=-0.0 size=N/A time=00:21:33.54 bitrate=N/A speed=39.1x    frame=31649 fps=943 q=-0.0 size=N/A time=00:22:00.02 bitrate=N/A speed=39.3x    frame=32250 fps=946 q=-0.0 size=N/A time=00:22:25.09 bitrate=N/A speed=39.5x    frame=32775 fps=947 q=-0.0 size=N/A time=00:22:46.99 bitrate=N/A speed=39.5x    frame=33266 fps=948 q=-0.0 size=N/A time=00:23:07.46 bitrate=N/A speed=39.5x    frame=33756 fps=947 q=-0.0 size=N/A time=00:23:27.90 bitrate=N/A speed=39.5x    frame=34223 fps=947 q=-0.0 size=N/A time=00:23:47.38 bitrate=N/A speed=39.5x    [Parsed_ssim_10 @ 0000029c8168d340] SSIM Y:0.988501 (19.393382) U:0.990876 (20.398222) V:0.991291 (20.600521) All:0.989362 (19.731358)
[out#0/null @ 0000029cf9bc4ec0] video:14833KiB audio:269964KiB subtitle:0KiB other streams:0KiB global headers:0KiB muxing overhead: unknown
frame=34520 fps=948 q=-0.0 Lsize=N/A time=00:23:59.77 bitrate=N/A speed=39.5x    
